# Blender v2.91.0 OBJ File: ''
# www.blender.org
mtllib tunnel.mtl
o Curve
v 4.897934 9.171198 0.599998
v 4.897934 9.171198 0.599998
v 4.897934 -7.339602 0.600002
v 4.897934 -7.339602 0.600002
v 4.897934 -7.339602 0.600002
v -13.164658 -7.339602 0.600002
v -13.164658 -7.339602 0.600002
v -13.164658 -7.339602 0.600002
v -4.963113 0.915798 0.600000
v -4.963113 0.915798 0.600000
v -4.963113 0.915798 0.600000
v -4.963113 0.915798 0.600000
v -13.164658 9.171198 0.599998
v -13.164658 9.171198 0.599998
v -9.164358 7.520513 0.599999
v -9.164358 7.520513 0.599999
v -9.164358 7.520513 0.599999
v -2.589575 0.957276 0.600000
v -2.589575 0.957276 0.600000
v -9.346113 -5.688634 0.600001
v -9.346113 -5.688634 0.600001
v -9.346113 -5.688634 0.600001
v 3.249722 -5.688634 0.600001
v 3.249722 -5.688634 0.600001
v 3.249722 -5.688634 0.600001
v 3.246900 7.520513 0.599999
v 3.246900 7.520513 0.599999
v 4.897934 9.171198 -0.600002
v 4.897934 9.171198 -0.600002
v 4.897934 9.171198 -0.600002
v 4.897934 -7.339602 -0.599998
v 4.897934 -7.339602 -0.599998
v 4.897934 -7.339602 -0.599998
v -13.164658 -7.339602 -0.599998
v -4.963113 0.915798 -0.600000
v -4.963113 0.915798 -0.600000
v -13.164658 9.171198 -0.600002
v -13.164658 9.171198 -0.600002
v -9.164358 7.520513 -0.600001
v -9.164358 7.520513 -0.600001
v -2.589575 0.957276 -0.600000
v -2.589575 0.957276 -0.600000
v -9.346113 -5.688634 -0.599999
v -9.346113 -5.688634 -0.599999
v 3.249722 -5.688634 -0.599999
v 3.249722 -5.688634 -0.599999
v 3.246900 7.520513 -0.600001
v 3.246900 7.520513 -0.600001
v 3.246900 7.520513 -0.600001
v 4.897934 9.171198 -0.600002
v 4.897934 9.171198 -0.600002
v 4.897934 9.171198 0.599998
v 4.897934 9.171198 0.599998
v 4.897934 -7.339602 -0.599998
v 4.897934 -7.339602 0.600002
v -13.164658 -7.339602 -0.599998
v -13.164658 -7.339602 0.600002
v -4.963113 0.915798 -0.600000
v -4.963113 0.915798 0.600000
v -13.164658 9.171198 -0.600002
v -13.164658 9.171198 0.599998
v -9.164358 7.520513 -0.600001
v -9.164358 7.520513 -0.600001
v -9.164358 7.520513 0.599999
v -9.164358 7.520513 0.599999
v -2.589575 0.957276 -0.600000
v -2.589575 0.957276 0.600000
v -9.346113 -5.688634 -0.599999
v -9.346113 -5.688634 0.600001
v 3.249722 -5.688634 -0.599999
v 3.249722 -5.688634 0.600001
v 3.246900 7.520513 -0.600001
v 3.246900 7.520513 0.599999
vt 0.333333 0.000000
vt 0.555556 0.000000
vt 0.444444 0.000000
vt 0.555556 0.000000
vt 0.000000 0.000000
vt 0.444444 0.000000
vt 0.555556 0.000000
vt 1.000000 0.000000
vt 0.000000 0.000000
vt 0.111111 0.000000
vt 0.333333 0.000000
vt 0.666667 0.000000
vt 0.888889 0.000000
vt 0.111111 0.000000
vt 1.000000 0.000000
vt 0.333333 0.000000
vt 0.777778 0.000000
vt 0.666667 0.000000
vt 0.222222 0.000000
vt 0.777778 0.000000
vt 0.333333 0.000000
vt 0.222222 0.000000
vt 0.888889 0.000000
vt 0.777778 0.000000
vt 0.555556 0.000000
vt 0.333333 0.000000
vt 0.444444 0.000000
vt 1.000000 0.000000
vt 0.000000 0.000000
vt 0.111111 0.000000
vt 1.000000 0.000000
vt 0.000000 0.000000
vt 0.666667 0.000000
vt 0.111111 0.000000
vt 0.888889 0.000000
vt 1.000000 0.000000
vt 0.777778 0.000000
vt 0.333333 0.000000
vt 0.666667 0.000000
vt 0.777778 0.000000
vt 0.222222 0.000000
vt 0.888889 0.000000
vt 0.111111 0.000000
vt 0.222222 0.000000
vt 0.111111 0.000000
vt 0.888889 0.000000
vt 0.000000 0.000000
vt 0.555556 0.000000
vt 0.444444 0.000000
vt 0.000000 1.000000
vt 0.200000 1.000000
vt 0.200000 0.000000
vt 0.000000 0.000000
vt 0.400000 1.000000
vt 0.400000 0.000000
vt 0.600000 1.000000
vt 0.600000 0.000000
vt 0.800000 1.000000
vt 0.800000 0.000000
vt 1.000000 1.000000
vt 1.000000 0.000000
vt 0.000000 1.000000
vt 0.200000 1.000000
vt 0.200000 0.000000
vt 0.000000 0.000000
vt 0.400000 1.000000
vt 0.400000 0.000000
vt 0.600000 1.000000
vt 0.600000 0.000000
vt 0.800000 1.000000
vt 0.800000 0.000000
vt 1.000000 1.000000
vt 1.000000 0.000000
vn 0.0000 0.0000 1.0000
vn 0.0000 -0.0000 -1.0000
vn 0.7071 0.7071 -0.0002
vn 0.7071 -0.7071 0.0000
vn 0.7071 0.7071 0.0000
vn -0.9233 -0.3842 -0.0000
vn -1.0000 -0.0000 -0.0000
vn -0.9233 0.3842 0.0000
vn 0.7071 0.7071 0.0002
vn 0.9240 -0.3823 0.0000
vn 1.0000 -0.0037 0.0000
vn 0.9255 0.3789 0.0000
vn -0.7072 0.7070 0.0000
vn -0.7070 -0.7072 0.0000
usemtl SVGMat.001
s off
f 11/1/1 17/2/1 14/3/1
f 15/4/1 1/5/1 13/6/1
f 16/7/1 27/8/1 2/9/1
f 27/8/1 5/10/1 2/9/1
f 10/11/1 19/12/1 16/7/1
f 23/13/1 3/14/1 26/15/1
f 9/16/1 20/17/1 18/18/1
f 8/19/1 22/20/1 12/21/1
f 7/22/1 25/23/1 21/24/1
f 39/25/2 36/26/2 37/27/2
f 48/28/2 39/25/2 28/29/2
f 33/30/2 49/31/2 30/32/2
f 42/33/2 36/26/2 39/25/2
f 31/34/2 45/35/2 47/36/2
f 43/37/2 35/38/2 41/39/2
f 44/40/2 34/41/2 36/26/2
f 46/42/2 34/41/2 44/40/2
f 32/43/2 34/41/2 46/42/2
s 1
f 6/44/1 4/45/1 24/46/1
f 29/47/2 40/48/2 38/49/2
f 52/50/3 55/51/4 54/52/4
f 52/50/3 54/52/4 50/53/5
f 55/51/4 57/54/6 56/55/6
f 55/51/4 56/55/6 54/52/4
f 57/54/6 59/56/7 58/57/7
f 57/54/6 58/57/7 56/55/6
f 59/56/7 61/58/8 60/59/8
f 59/56/7 60/59/8 58/57/7
f 61/58/8 53/60/5 51/61/9
f 61/58/8 51/61/9 60/59/8
f 64/62/10 67/63/11 66/64/11
f 64/62/10 66/64/11 62/65/10
f 67/63/11 69/66/12 68/67/12
f 67/63/11 68/67/12 66/64/11
f 69/66/12 71/68/13 70/69/13
f 69/66/12 70/69/13 68/67/12
f 71/68/13 73/70/14 72/71/14
f 71/68/13 72/71/14 70/69/13
f 73/70/14 65/72/10 63/73/10
f 73/70/14 63/73/10 72/71/14
